<?xml version="1.0" encoding="utf-8"?>
<!-- Generator: Adobe Illustrator 26.0.3, SVG Export Plug-In . SVG Version: 6.00 Build 0)  -->
<svg version="1.1" id="Layer_1" xmlns="http://www.w3.org/2000/svg" xmlns:xlink="http://www.w3.org/1999/xlink" x="0px" y="0px"
	 viewBox="0 0 448 512" style="enable-background:new 0 0 448 512;" xml:space="preserve">
<style type="text/css">
	.st0{fill:#FFFFFF;}
</style>
<path class="st0" d="M384,32H64C28.6,32,0,60.6,0,96v320c0,35.4,28.6,64,64,64h320c35.4,0,64-28.6,64-64V96
	C448,60.6,419.4,32,384,32z M384,336c0,17.7-14.3,32-32,32H96c-17.7,0-32-14.3-32-32V225.9l138.5,69.3c6.8,3.3,14.1,5,21.5,5
	s14.8-1.7,21.5-5L384,225.9V336z M384,190.1l-152.8,76.4c-4.5,2.2-9.8,2.2-14.3,0L64,190.1V176c0-17.7,14.3-32,32-32h256
	c17.7,0,32,14.3,32,32V190.1z"/>
</svg>
