<svg id="Layer_2" data-name="Layer 2" xmlns="http://www.w3.org/2000/svg" xmlns:xlink="http://www.w3.org/1999/xlink" viewBox="0 0 300 300"><defs><style>.cls-1{fill:#fff;}.cls-2{fill:#707070;}.cls-3{fill:url(#linear-gradient);}</style><linearGradient id="linear-gradient" x1="124.25" y1="36.89" x2="191" y2="220.3" gradientUnits="userSpaceOnUse"><stop offset="0" stop-color="#64fffa"/><stop offset="1" stop-color="#0874b7"/></linearGradient></defs><circle class="cls-1" cx="150" cy="150" r="140"/><rect class="cls-2" x="117" y="230" width="66" height="31" rx="8.45"/><path class="cls-3" d="M149.9,32.45c-41.15,0-74.5,32.68-74.5,73a72.4,72.4,0,0,0,29.88,58.46l3.12,46.19a14.34,14.34,0,0,0,14.35,14.35h7.72l-1.27-22.93,40.33,22.93h7.52A14.36,14.36,0,0,0,191.4,210.1l3.11-46.18a72.37,72.37,0,0,0,29.89-58.47C224.4,65.13,191.05,32.45,149.9,32.45Zm-23.1,126a56.61,56.61,0,0,0,46.41-.21l-1.47,26.4Zm73.44-60.67L150,98a18.75,18.75,0,0,0,7.12,14.82,23.64,23.64,0,0,0,4.13,2.66,10.25,10.25,0,0,0,4.53,1.52c1.07,0,2.14,0,3.21,0l5,0,21.4-.1C187.34,131.72,170,142,150,142c-27.74,0-50.24-19.7-50.24-44S122.26,54,150,54a56.23,56.23,0,0,1,20.67,3.89,50.81,50.81,0,0,1,16.58,10.59,45.13,45.13,0,0,1,6.1,7.27,40.17,40.17,0,0,1,3.2,5.44c.86,1.85,1.26,3.89,2.12,5.74A17.62,17.62,0,0,0,201.33,91a22.21,22.21,0,0,0,6.39,5,23.78,23.78,0,0,0,3,1.36,4.2,4.2,0,0,0,1.18.39Z"/></svg>