<svg xmlns="http://www.w3.org/2000/svg" width="99.995" height="99.995" viewBox="0 0 175 175">
  <defs>
    <style>
      .cls-1 {
        fill: #707070;
        fill-rule: evenodd;
      }
    </style>
  </defs>
  <path id="Forma_4" data-name="Forma 4" class="cls-1" d="M127.847,93.181a45.543,45.543,0,0,0-6.71,15.332A44.741,44.741,0,0,0,120.013,118l-2,19.982c-0.983,9.822-16.442,9.023-16.966,8.994l-0.025.029L72.132,126.5l1.907,20.508s-15.991,1-16.99-9l-2-19.993a54.493,54.493,0,0,0-1.124-9.5A54.975,54.975,0,0,0,48.259,93.3c-16.9-16.624-15.2-35.255-15.2-35.255,0-60.978,53.969-56.979,53.969-56.979,17.417,1.449,33.83,9.418,44.35,23.491A57.4,57.4,0,0,1,142,50.045a19.2,19.2,0,0,1-13.992-5,18.554,18.554,0,0,1-5-8c-9.994-22.992-37.978-20.992-37.978-20.992-39.477,0-37.978,33.988-37.978,33.988,0,34.987,42.975,32.988,42.975,32.988,25.235,0,32.981-18.993,32.981-18.993H98.025c-9.495,0-9.994-9-9.994-9v-5H142v10C142,75.532,134.706,86.392,127.847,93.181Zm-23.775,25.307,1.949-20.461s-13.184,5.934-32.134,1.108Zm-38.027,31.52h42.972a3,3,0,0,1,3,3V170a3,3,0,0,1-3,3H66.045a3,3,0,0,1-3-3V153.008A3,3,0,0,1,66.045,150.008Z"/>
</svg>
